<svg xmlns="http://www.w3.org/2000/svg" width="794" height="1123" viewBox="0 0 794 1123">
  <defs>
    <linearGradient id="paper" x1="0" y1="0" x2="1" y2="1">
      <stop offset="0" stop-color="#f8f6ec"/>
      <stop offset="0.52" stop-color="#fffef8"/>
      <stop offset="1" stop-color="#f3f0e4"/>
    </linearGradient>
    <radialGradient id="warmth" cx="52%" cy="44%" r="62%">
      <stop offset="0" stop-color="#fffefb" stop-opacity=".95"/>
      <stop offset="1" stop-color="#f0ecdf" stop-opacity="0"/>
    </radialGradient>
    <pattern id="paperGrain" width="24" height="24" patternUnits="userSpaceOnUse">
      <circle cx="3" cy="6" r=".6" fill="#9b967e" opacity=".13"/>
      <circle cx="17" cy="19" r=".5" fill="#aaa58e" opacity=".12"/>
    </pattern>
    <g id="leaf" fill="#a7ae88" fill-opacity=".18" stroke="#57663c" stroke-width="2.2" stroke-linecap="round" stroke-linejoin="round">
      <path d="M0 0 C26-34 76-43 112-25 C83 8 36 18 0 0Z"/>
      <path d="M4-1 C38-7 69-15 105-24" fill="none" stroke-width="1.7"/>
      <path d="M27-5 23-23m20 13 1-26m19 18 7-22m9 17 13-16" fill="none" stroke-width="1.2" opacity=".8"/>
    </g>
    <g id="sprig" fill="none" stroke="#58683e" stroke-linecap="round" stroke-linejoin="round">
      <path d="M0 470 C39 382 36 294 67 204 C89 141 104 87 152 22" stroke-width="3"/>
      <path d="M31 387 C75 341 111 326 168 321m-100-82c-40-29-56-67-68-118m95 50c56-25 88-65 112-120m-132 322c-47 8-80 2-117-18m162-93c-9-50-5-88 13-130m-81 247c44-3 82-24 122-55" stroke-width="2.1"/>
      <use href="#leaf" transform="translate(-34 184) rotate(230) scale(.88)"/>
      <use href="#leaf" transform="translate(95 167) rotate(-42) scale(.88)"/>
      <use href="#leaf" transform="translate(65 305) rotate(-14) scale(.94)"/>
      <use href="#leaf" transform="translate(-8 369) rotate(198) scale(.82)"/>
      <use href="#leaf" transform="translate(60 242) rotate(204) scale(.68)"/>
      <use href="#leaf" transform="translate(102 336) rotate(-24) scale(.74)"/>
      <use href="#leaf" transform="translate(18 432) rotate(212) scale(.7)"/>
      <g fill="#9ca57c" fill-opacity=".55" stroke="none">
        <circle cx="73" cy="212" r="6"/><circle cx="94" cy="188" r="5"/><circle cx="117" cy="173" r="5"/>
        <circle cx="163" cy="320" r="5"/><circle cx="184" cy="311" r="4"/><circle cx="203" cy="306" r="5"/>
      </g>
    </g>
  </defs>
  <rect width="794" height="1123" fill="url(#paper)"/>
  <rect width="794" height="1123" fill="url(#warmth)"/>
  <rect width="794" height="1123" fill="url(#paperGrain)" opacity=".42"/>
  <use href="#sprig" transform="translate(-32 8)"/>
  <use href="#sprig" transform="translate(-20 585) rotate(-14 80 240) scale(.83)" opacity=".88"/>
  <use href="#sprig" transform="translate(824 255) scale(-.78 .78)" opacity=".84"/>
  <use href="#sprig" transform="translate(810 716) scale(-.92 .92)" opacity=".88"/>
  <path d="M0 0h794v1123H0z" fill="none" stroke="#d8d3c2" stroke-opacity=".28" stroke-width="2"/>
</svg>
