<svg xmlns="http://www.w3.org/2000/svg" width="1024" height="1536" viewBox="0 0 1024 1536" fill="none">
  <defs><linearGradient id="bg" x1="0" y1="0" x2="1" y2="1"><stop stop-color="#F3B4A7"/><stop offset="1" stop-color="#D8758A"/></linearGradient></defs>
  <rect width="1024" height="1536" fill="url(#bg)"/>
  <path d="M0 0h314c-106 140-105 299 4 476 92 150 45 307-318 376V0Z" fill="#B55375" opacity=".64"/>
  <path d="M1024 0H747c127 161 132 316 12 465-103 127-42 306 265 399V0Z" fill="#F6D7C7" opacity=".72"/>
  <path d="M0 1536v-225c202-61 343-19 424 125 58 103 250 128 600 21v79H0Z" fill="#728C83" opacity=".74"/>
  <path d="M507 142c-18 138-7 247 33 325" stroke="#FFF5EA" stroke-width="28" stroke-linecap="round" opacity=".34"/>
  <g fill="none" stroke="#7B4764" stroke-width="12" stroke-linecap="round" opacity=".8"><path d="M109 1150c42-107 105-153 187-138"/><path d="M160 1084l-53-52M195 1041l-5-80M235 1025l57-46"/><path d="M840 340c34-78 90-111 169-99"/><path d="M882 287l-55-39M920 257l4-60M954 252l49-34"/></g>
</svg>
